<svg width="16" height="16" viewBox="0 0 16 16" fill="none" xmlns="http://www.w3.org/2000/svg">
<path d="M8 0C12.4182 7.56372e-05 15.9999 3.58183 16 8C15.9999 12.4182 12.4182 15.9999 8 16C3.58183 15.9999 7.56351e-05 12.4182 0 8C7.53748e-05 3.58183 3.58183 7.5377e-05 8 0ZM10.9932 5.00586C10.8401 4.85294 10.6134 4.79979 10.4082 4.86816L4.08594 6.97559C3.87434 7.04616 3.72266 7.23337 3.69824 7.45508C3.6739 7.67684 3.7814 7.89297 3.97266 8.00781L6.48438 9.51465L7.99121 12.0264C8.106 12.2177 8.32216 12.3251 8.54395 12.3008C8.76567 12.2764 8.95287 12.1247 9.02344 11.9131L11.1309 5.59082C11.1992 5.38554 11.1461 5.15888 10.9932 5.00586Z" fill="#3F76ED"/>
</svg>
